<?xml version="1.0" encoding="utf-8"?>
<!-- Generator: Adobe Illustrator 23.1.0, SVG Export Plug-In . SVG Version: 6.00 Build 0)  -->
<svg version="1.1" id="Capa_1" xmlns="http://www.w3.org/2000/svg" xmlns:xlink="http://www.w3.org/1999/xlink" x="0px" y="0px"
	 viewBox="0 0 292.7 292.7" enable-background="new 0 0 292.7 292.7" xml:space="preserve">
<path fill="#7D8975" stroke="#7D8975" stroke-width="7.2313" stroke-miterlimit="10" d="M266.9,272.4H26.4c-3.1,0-5.7-2.6-5.7-5.7
	V26.3c0-3.1,2.6-5.7,5.7-5.7h240.5c3.1,0,5.7,2.6,5.7,5.7v240.5C272.6,269.9,270,272.4,266.9,272.4z"/>
<path fill="#FFFFFF" d="M83.7,240.5h64.6v-11.7H83.7c-3.2,0-5.9-2.6-5.9-5.9V70.1c0-3.2,2.6-5.9,5.9-5.9h76.4v29.4
	c0,9.7,7.9,17.6,17.6,17.6h29.4v23.5h11.7v-24.5c0-4.7-1.9-9.2-5.2-12.5c0,0,0,0,0,0L170.9,55c-1.1-1.1-2.6-1.5-4.1-1.5
	c-1.8-0.6-3.7-1-5.7-1H83.7c-9.7,0-17.6,7.9-17.6,17.6v152.7C66.1,232.6,73.9,240.5,83.7,240.5z M171.8,72.5l26.9,26.9h-21.1
	c-3.2,0-5.9-2.6-5.9-5.9V72.5z"/>
<circle fill="none" stroke="#BFD3B4" stroke-width="7.2313" stroke-miterlimit="10" cx="191.2" cy="191.9" r="55.8"/>
<line fill="none" stroke="#BFD3B4" stroke-width="9.1215" stroke-linecap="round" stroke-miterlimit="10" x1="218.8" y1="191.9" x2="163.6" y2="191.9"/>
<line fill="none" stroke="#BFD3B4" stroke-width="9.1215" stroke-linecap="round" stroke-miterlimit="10" x1="191.2" y1="164.3" x2="191.2" y2="219.4"/>
</svg>
