<?xml version="1.0" ?><svg enable-background="new 0 0 512 512" id="Layer_1" version="1.1" viewBox="0 0 512 512" xml:space="preserve" xmlns="http://www.w3.org/2000/svg" xmlns:xlink="http://www.w3.org/1999/xlink"><g><g><linearGradient gradientUnits="userSpaceOnUse" id="SVGID_1_" x1="-0.0000027" x2="512" y1="256" y2="256"><stop offset="0" style="stop-color:#FFCA05"/><stop offset="1" style="stop-color:#FAAC18"/></linearGradient><circle cx="256" cy="256" fill="url(#SVGID_1_)" r="256"/><linearGradient gradientUnits="userSpaceOnUse" id="SVGID_2_" x1="42.6666641" x2="469.3333435" y1="256.0005188" y2="256.0005188"><stop offset="0" style="stop-color:#FAAC18"/><stop offset="1" style="stop-color:#FFCA05"/></linearGradient><path d="M256,469.3338623c-117.6315155,0-213.3333435-95.7018738-213.3333435-213.3333435    c0-117.6309204,95.7018204-213.333313,213.3333435-213.333313c117.6356812,0,213.3333435,95.7024002,213.3333435,213.333313    C469.3333435,373.6319885,373.6356812,469.3338623,256,469.3338623z" fill="url(#SVGID_2_)"/></g><path d="M158.1247559,144v240h211.7498779V144H158.1247559z M289.8020935,316.1109314l-6.636261-7.4805298   l44.6890564-39.645874h-110.599472v-10h110.599472l-44.6890564-39.6458588l6.636261-7.4805298l58.7568054,52.1263885   L289.8020935,316.1109314z" opacity="0.3"/><path d="M150.1247559,136v240h211.7498779V136H150.1247559z M281.8020935,308.1109314l-6.636261-7.4805298   l44.6890564-39.645874h-110.599472v-10h110.599472l-44.6890564-39.6458588l6.636261-7.4805298l58.7568054,52.1263885   L281.8020935,308.1109314z" fill="#FFFFFF"/></g></svg>