<?xml version="1.0" encoding="utf-8"?>
<!-- Generator: Adobe Illustrator 23.1.0, SVG Export Plug-In . SVG Version: 6.00 Build 0)  -->
<svg version="1.1" id="Capa_1" xmlns="http://www.w3.org/2000/svg" xmlns:xlink="http://www.w3.org/1999/xlink" x="0px" y="0px"
	 viewBox="0 0 292.7 292.7" enable-background="new 0 0 292.7 292.7" xml:space="preserve">
<path fill="#7D8975" stroke="#7D8975" stroke-width="7.2313" stroke-miterlimit="10" d="M266.9,272.4H26.4c-3.1,0-5.7-2.6-5.7-5.7
	V26.3c0-3.1,2.6-5.7,5.7-5.7h240.5c3.1,0,5.7,2.6,5.7,5.7v240.5C272.6,269.9,270,272.4,266.9,272.4z"/>
<g>
	<path id="Shape" fill="none" stroke="#FFFFFF" stroke-width="7.6991" stroke-linejoin="round" d="M149.6,160.7V154
		c1.7-0.8,61.6-91.6,61.6-91.6c0-3.1-2.5-5.6-5.6-5.6l0,0H60c-3.1,0-5.6,2.5-5.6,5.6c0,0,59.9,90.7,61.6,91.6v76.4l16.8-9.8"/>
	<path fill="none" stroke="#FFFFFF" stroke-width="7.6991" stroke-linecap="round" stroke-linejoin="round" d="M74,68l44.8,67.2"/>
</g>
<circle fill="none" stroke="#BFD3B4" stroke-width="6.5669" stroke-miterlimit="10" cx="190" cy="200.8" r="50.7"/>
<line fill="none" stroke="#BFD3B4" stroke-width="8.2834" stroke-linecap="round" stroke-miterlimit="10" x1="207.9" y1="218.3" x2="172" y2="183.3"/>
<line fill="none" stroke="#BFD3B4" stroke-width="8.2834" stroke-linecap="round" stroke-miterlimit="10" x1="207.4" y1="182.9" x2="172.5" y2="218.8"/>
</svg>
