<?xml version="1.0" encoding="utf-8"?>
<!-- Generator: Adobe Illustrator 23.1.0, SVG Export Plug-In . SVG Version: 6.00 Build 0)  -->
<svg version="1.1" id="Capa_1" xmlns="http://www.w3.org/2000/svg" xmlns:xlink="http://www.w3.org/1999/xlink" x="0px" y="0px"
	 viewBox="0 0 292.7 292.7" enable-background="new 0 0 292.7 292.7" xml:space="preserve">
<path fill="#7D8975" stroke="#7D8975" stroke-width="7.2313" stroke-miterlimit="10" d="M266.9,272.4H26.4c-3.1,0-5.7-2.6-5.7-5.7
	V26.3c0-3.1,2.6-5.7,5.7-5.7h240.5c3.1,0,5.7,2.6,5.7,5.7v240.5C272.6,269.9,270,272.4,266.9,272.4z"/>
<path fill="#BFD3B4" d="M207.1,191.8l11.7,11.7c1.1,1.1,2.6,1.7,4.2,1.7c1.5,0,3.1-0.6,4.2-1.7l11.7-11.7c2.3-2.3,2.3-6,0-8.3
	c-2.3-2.3-6-2.3-8.3,0l-7.6,7.6l-7.6-7.6c-2.3-2.3-6-2.3-8.3,0C204.8,185.8,204.8,189.5,207.1,191.8L207.1,191.8z"/>
<path fill="#BFD3B4" d="M206.8,218.4c-6.4,6.4-15.2,10.3-24.9,10.3c-9.7,0-18.5-3.9-24.9-10.3c-6.4-6.4-10.3-15.2-10.3-24.9
	c0-9.7,3.9-18.5,10.3-24.9c6.4-6.4,15.2-10.3,24.9-10.3c9.7,0,18.5,3.9,24.9,10.3c6.4,6.4,10.3,15.2,10.3,24.9
	c0,1.6-0.1,3.1-0.3,4.8l11.7,1.5c0.3-2.1,0.4-4.2,0.4-6.3c0-12.9-5.3-24.7-13.8-33.2c-8.5-8.5-20.3-13.8-33.2-13.8
	c-12.9,0-24.7,5.3-33.2,13.8c-8.5,8.5-13.8,20.3-13.8,33.2c0,12.9,5.3,24.7,13.8,33.2c8.5,8.5,20.3,13.8,33.2,13.8
	c12.9,0,24.7-5.3,33.2-13.8L206.8,218.4L206.8,218.4z"/>
<path fill="#FFFFFF" d="M70.3,240.5h64.6v-11.7H70.3c-3.2,0-5.9-2.6-5.9-5.9V70.1c0-3.2,2.6-5.9,5.9-5.9h76.4v29.4
	c0,9.7,7.9,17.6,17.6,17.6h29.4v23.5h11.7v-24.5c0-4.7-1.9-9.2-5.2-12.5c0,0,0,0,0,0L157.5,55c-1.1-1.1-2.6-1.5-4.1-1.5
	c-1.8-0.6-3.7-1-5.7-1H70.3c-9.7,0-17.6,7.9-17.6,17.6v152.7C52.7,232.6,60.5,240.5,70.3,240.5z M158.4,72.5l26.9,26.9h-21.1
	c-3.2,0-5.9-2.6-5.9-5.9V72.5z"/>
<rect x="52.7" y="52.5" fill="none" width="188" height="188"/>
</svg>
